<svg width="40" height="33" viewBox="0 0 40 33" fill="none" xmlns="http://www.w3.org/2000/svg">
<g clip-path="url(#clip0_1654_3576)">
<path d="M35.4449 5.4934C35.4449 6.87047 34.2715 7.98679 32.824 7.98679C31.3765 7.98679 30.2031 6.87047 30.2031 5.4934C30.2031 4.11633 31.3765 3 32.824 3C34.2715 3 35.4449 4.11633 35.4449 5.4934Z" fill="#FF6764"/>
<path d="M15.3078 21.7606L13.1862 18.9902L13.519 21.4439C13.5606 21.5627 13.5606 21.6814 13.4775 21.7606L11.3975 26.9847C11.1063 27.6575 11.3559 28.449 12.0215 28.8052C12.1463 28.8843 12.3126 28.924 12.4375 28.9635C13.103 29.1219 13.8103 28.7657 14.1015 28.1325L15.6406 24.6893L15.391 21.998C15.3909 21.8794 15.3493 21.8002 15.3078 21.7606Z" fill="#FF6764"/>
<path d="M22.339 13.0527L19.635 12.6965C19.635 12.6965 17.9295 10.3614 17.7215 10.0844C17.5135 9.84701 17.1806 9.29291 16.7646 9.01594C16.2237 8.65972 15.5581 8.54108 14.9341 8.65972C14.6013 8.73882 14.227 8.9367 14.019 9.05548C13.811 9.21382 10.691 11.351 10.691 11.351L10.0255 11.8656C9.73431 12.0634 9.56789 12.3801 9.52632 12.6966L9.23518 15.8628V16.1794C9.27675 16.3773 9.40161 16.5752 9.56803 16.7335L8.40316 19.0686L5.99029 17.9604C5.36629 17.6834 4.65916 17.9208 4.36786 18.5145L1.12299 24.8863C0.831847 25.48 1.08142 26.1527 1.70543 26.4299L4.36786 27.6567C4.36786 28.3692 4.99186 28.9628 5.74073 28.9628C6.4896 28.9628 7.1136 28.3692 7.1136 27.6567C7.1136 27.5776 7.07203 27.4984 7.07203 27.3797L10.1917 21.1266C10.4829 20.533 10.2333 19.8602 9.60931 19.5831L9.23488 19.4248L10.3997 17.0897H10.4829C11.1485 17.0897 11.6478 16.5751 11.7309 15.9419L11.9805 13.3695L12.9789 12.6967L12.6045 16.1795C12.5629 16.5357 12.6876 16.8919 12.8956 17.1689L16.0156 21.2453C16.1405 21.4432 16.2652 21.641 16.2652 21.8785L16.8478 27.4588C16.9309 28.1712 17.3886 28.844 18.1373 28.9628C18.3037 29.0023 18.4285 28.9628 18.5949 28.9628C19.302 28.8837 19.926 28.29 19.8429 27.6171L19.5102 20.9682C19.5102 20.7704 19.4686 20.612 19.3437 20.4537C19.3437 20.4537 17.4302 17.0105 17.3053 16.8126C17.2222 16.6543 17.2222 16.4564 17.2637 16.2981C17.2637 16.1397 17.4717 13.8444 17.4717 13.8444L17.9709 14.5171C18.1789 14.7941 18.47 14.9524 18.8029 15.0317L22.0893 15.467H22.4222C23.0046 15.3879 23.4622 14.9129 23.4622 14.3192C23.5453 13.6465 23.0046 13.1321 22.339 13.0528L22.339 13.0527ZM4.90862 22.6303L3.57749 25.3215C3.45263 25.5194 3.20305 25.6382 2.99505 25.5194C2.78705 25.4006 2.6622 25.1632 2.78705 24.9653L4.11818 22.274C4.24304 22.0761 4.49262 21.9574 4.70062 22.0761C4.90862 22.1948 4.99176 22.4324 4.90862 22.6303ZM5.69905 28.1314C5.40791 28.1314 5.15818 27.894 5.15818 27.6169C5.15818 27.3399 5.40776 27.1023 5.69905 27.1023C5.9902 27.1023 6.23992 27.3397 6.23992 27.6169C6.23979 27.9335 5.99021 28.1314 5.69905 28.1314Z" fill="#FF6764"/>
<path d="M18.2309 5.12686C18.4438 6.48886 17.4559 7.75719 16.0242 7.95983C14.5925 8.16235 13.2594 7.22241 13.0465 5.86041C12.8335 4.49842 13.8214 3.23008 15.2532 3.02745C16.6848 2.82493 18.018 3.76486 18.2309 5.12686Z" fill="#FF6764"/>
<path d="M39.6447 12.2992L39.1039 12.1804V10.7161C39.1039 10.4391 38.8959 10.2413 38.6047 10.2413H36.5663C35.9423 9.2914 35.5263 8.6582 34.6943 8.6582H30.9919C30.1599 8.6582 29.7023 9.2914 29.1199 10.2413H27.0815C26.7903 10.2413 26.5823 10.4392 26.5823 10.7161V12.1804L26.0415 12.2992C25.4175 12.4575 25.043 13.0907 25.2095 13.6844C25.3759 14.278 25.9999 14.6342 26.5823 14.5154V19.7C26.5823 19.977 26.7903 20.1748 27.0815 20.1748H29.827L28.8702 27.457C28.787 28.1694 29.3277 28.8421 30.0766 28.9212H30.243C30.9502 28.9212 31.5326 28.4464 31.6159 27.7735L32.6143 20.1747H33.1135L34.0703 27.7738C34.1535 28.4465 34.7359 28.9216 35.4432 28.9216H35.6096C36.3585 28.8425 36.8992 28.1696 36.8161 27.4573L35.8592 20.1752H38.6048C38.8959 20.1752 39.1039 19.9773 39.1039 19.7003V14.5158C39.187 14.5158 39.2703 14.5553 39.3535 14.5553C39.8943 14.5553 40.3519 14.1991 40.5183 13.7242C40.6432 13.0909 40.2688 12.4577 39.6448 12.2994L39.6447 12.2992ZM38.1055 19.2251H27.5807V11.191H38.1055V19.2251Z" fill="#FF6764"/>
<path d="M30.2857 15.3497H30.7017V17.7243C30.7017 17.8034 30.7849 17.8826 30.8682 17.8826H32.1162C32.1993 17.8826 32.2826 17.8035 32.2826 17.7243L32.2825 16.7744C32.2825 16.537 32.4489 16.2996 32.74 16.2599C32.9064 16.2203 33.1145 16.2994 33.1976 16.4182C33.2807 16.4973 33.364 16.6556 33.364 16.7744V17.7638C33.364 17.843 33.4472 17.9222 33.5304 17.9222H34.7784C34.8616 17.9222 34.9449 17.8431 34.9449 17.7638V15.3892H35.3609C35.6104 15.3892 35.6937 15.1123 35.5273 14.9539L32.9897 12.5398C32.9066 12.4607 32.7402 12.4607 32.6153 12.5398L30.0777 14.9539C29.9113 15.1123 30.0362 15.3497 30.2857 15.3497Z" fill="#FF6764"/>
</g>
<defs>
<clipPath id="clip0_1654_3576">
<rect width="40" height="33" fill="white"/>
</clipPath>
</defs>
</svg>
