<svg width="30" height="16" viewBox="0 0 30 16" fill="none" xmlns="http://www.w3.org/2000/svg">
<path d="M1.48897 8.60086C1.15772 8.60086 0.888672 8.33269 0.888672 8.00056C0.888672 7.66931 1.15685 7.40026 1.48897 7.40026H26.739L19.7215 2.03901C19.4587 1.83833 19.4083 1.46304 19.609 1.20024C19.8097 0.937437 20.1849 0.887062 20.4477 1.08774L28.8375 7.49749C29.0013 7.60462 29.1093 7.78909 29.1093 7.99974C29.1093 8.21039 29.0013 8.39486 28.8375 8.50199L20.4477 14.9117C20.1849 15.1124 19.8097 15.062 19.609 14.7992C19.4083 14.5364 19.4587 14.1612 19.7215 13.9605L26.739 8.59921H1.48897V8.60086Z" fill="white"/>
</svg>
