<svg width="20" height="19" viewBox="0 0 20 19" fill="none" xmlns="http://www.w3.org/2000/svg">
<path d="M14.0711 0.664551C16.9181 0.664551 19.2254 3.00742 19.2254 6.28744C19.2254 12.8475 12.1968 16.5961 9.8539 18.0018C7.51103 16.5961 0.482422 12.8475 0.482422 6.28744C0.482422 3.00742 2.82529 0.664551 5.63674 0.664551C7.37983 0.664551 8.91676 1.6017 9.8539 2.53885C10.7911 1.6017 12.328 0.664551 14.0711 0.664551ZM10.7292 15.2878C11.5548 14.7668 12.2999 14.2485 12.9971 13.6937C15.7907 11.4727 17.3511 9.04547 17.3511 6.28744C17.3511 4.07577 15.9107 2.53885 14.0711 2.53885C13.0627 2.53885 11.9719 3.07302 11.179 3.86397L9.8539 5.1891L8.52878 3.86397C7.73595 3.07302 6.64511 2.53885 5.63674 2.53885C3.81867 2.53885 2.35672 4.09076 2.35672 6.28744C2.35672 9.0464 3.91801 11.4727 6.70977 13.6937C7.40795 14.2485 8.15298 14.7668 8.97861 15.2869C9.25881 15.464 9.53621 15.6336 9.8539 15.8229C10.1716 15.6336 10.449 15.464 10.7292 15.2878Z" fill="#FF6764"/>
</svg>
