<svg width="30" height="30" viewBox="0 0 30 30" fill="none" xmlns="http://www.w3.org/2000/svg">
<g clip-path="url(#clip0_2313_2623)">
<path d="M16.7126 2.61668C13.7217 2.20525 10.6829 2.88987 8.1574 4.54413C5.63188 6.19839 3.79018 8.71056 2.97237 11.6168C2.15456 14.523 2.41588 17.6269 3.70807 20.3555C5.00027 23.0841 7.23606 25.253 10.0026 26.4617C9.9278 25.5014 9.99647 24.5354 10.2064 23.5954C10.4376 22.5467 11.8264 16.7667 11.8264 16.7667C11.5498 16.1468 11.4116 15.4741 11.4214 14.7954C11.4214 12.9392 12.4926 11.5542 13.8251 11.5542C14.0645 11.5507 14.3018 11.5988 14.521 11.6952C14.7401 11.7916 14.9359 11.9341 15.0951 12.113C15.2542 12.2918 15.373 12.5028 15.4433 12.7317C15.5136 12.9605 15.5339 13.2018 15.5026 13.4392C15.5026 14.5642 14.7801 16.2667 14.4026 17.8642C14.328 18.1572 14.3233 18.4636 14.3888 18.7587C14.4543 19.0538 14.5883 19.3295 14.7798 19.5634C14.9714 19.7972 15.2152 19.9829 15.4917 20.1052C15.7681 20.2276 16.0694 20.2833 16.3714 20.2679C18.7439 20.2679 20.3339 17.2292 20.3339 13.6417C20.3339 10.8917 18.5126 8.83168 15.1551 8.83168C14.3518 8.80047 13.5506 8.93283 12.8 9.22075C12.0495 9.50866 11.3653 9.94611 10.7889 10.5065C10.2126 11.067 9.75619 11.7387 9.4474 12.4809C9.13861 13.2231 8.98388 14.0203 8.99262 14.8242C8.95683 15.7158 9.2445 16.5904 9.80262 17.2867C9.90691 17.3645 9.98306 17.4742 10.0196 17.5991C10.0561 17.724 10.051 17.8574 10.0051 17.9792C9.94762 18.2092 9.80262 18.7579 9.74512 18.9592C9.73316 19.0274 9.70534 19.0919 9.6639 19.1474C9.62246 19.203 9.56855 19.248 9.50653 19.2789C9.44451 19.3098 9.3761 19.3257 9.30681 19.3253C9.23752 19.3249 9.1693 19.3083 9.10762 19.2767C7.37762 18.5842 6.56262 16.6804 6.56262 14.5067C6.56262 10.9479 9.54262 6.68793 15.5051 6.68793C20.2501 6.68793 23.4051 10.1592 23.4051 13.8717C23.4051 18.7579 20.6839 22.4317 16.6626 22.4317C16.0616 22.4509 15.4655 22.3183 14.9293 22.046C14.3931 21.7738 13.9343 21.3707 13.5951 20.8742C13.5951 20.8742 12.8726 23.7692 12.7301 24.3167C12.4392 25.2626 12.01 26.1602 11.4564 26.9804C12.6101 27.3304 13.8089 27.5054 15.0139 27.5004C16.6558 27.5017 18.2819 27.1792 19.7991 26.5511C21.3162 25.9231 22.6946 25.002 23.8552 23.8406C25.0158 22.6791 25.936 21.3001 26.5629 19.7826C27.1899 18.265 27.5113 16.6387 27.5089 14.9967C27.5073 11.9779 26.4136 9.06167 24.4297 6.7864C22.4457 4.51113 19.7055 3.03051 16.7151 2.61793L16.7126 2.61668Z" fill="#979797"/>
</g>
<defs>
<clipPath id="clip0_2313_2623">
<rect width="30" height="30" fill="white"/>
</clipPath>
</defs>
</svg>
