<svg width="26" height="22" viewBox="0 0 26 22" fill="none" xmlns="http://www.w3.org/2000/svg">
<path d="M25.7034 3.06869C24.7491 3.4908 23.7371 3.76803 22.7009 3.89119C23.793 3.23798 24.6105 2.20996 25.0009 0.998687C23.9759 1.60869 22.8521 2.03619 21.6809 2.26744C20.8941 1.42566 19.8513 0.867392 18.7146 0.679418C17.5778 0.491445 16.4108 0.684301 15.3949 1.228C14.3791 1.77171 13.5713 2.63579 13.0973 3.68593C12.6232 4.73606 12.5093 5.91341 12.7734 7.03494C10.6947 6.93076 8.66127 6.39059 6.80497 5.44952C4.94866 4.50844 3.31102 3.1875 1.99836 1.57244C1.53372 2.3705 1.28955 3.27772 1.29086 4.20119C1.29086 6.01369 2.21336 7.61494 3.61586 8.55244C2.78587 8.52631 1.97415 8.30216 1.24836 7.89869V7.96369C1.24861 9.17081 1.66632 10.3407 2.43067 11.275C3.19502 12.2093 4.25896 12.8505 5.44211 13.0899C4.67163 13.2987 3.86374 13.3295 3.07961 13.1799C3.41319 14.219 4.06337 15.1277 4.9391 15.7788C5.81483 16.43 6.87227 16.7909 7.96336 16.8112C6.87896 17.6628 5.63733 18.2924 4.30946 18.6639C2.98159 19.0354 1.59352 19.1415 0.224609 18.9762C2.61423 20.513 5.39598 21.3288 8.23711 21.3262C17.8534 21.3262 23.1121 13.3599 23.1121 6.45119C23.1121 6.22619 23.1059 5.99869 23.0959 5.77619C24.1194 5.0364 25.0029 4.11996 25.7046 3.06994L25.7034 3.06869Z" fill="#FF6764"/>
</svg>
