<svg width="30" height="30" viewBox="0 0 30 30" fill="none" xmlns="http://www.w3.org/2000/svg">
<g clip-path="url(#clip0_2313_2619)">
<path d="M27.7029 7.06869C26.7486 7.4908 25.7366 7.76803 24.7004 7.89119C25.7926 7.23798 26.61 6.20996 27.0004 4.99869C25.9754 5.60869 24.8516 6.03619 23.6804 6.26744C22.8936 5.42566 21.8508 4.86739 20.7141 4.67942C19.5773 4.49145 18.4103 4.6843 17.3945 5.228C16.3786 5.77171 15.5709 6.63579 15.0968 7.68593C14.6227 8.73606 14.5088 9.91341 14.7729 11.0349C12.6943 10.9308 10.6608 10.3906 8.80448 9.44952C6.94817 8.50844 5.31053 7.1875 3.99787 5.57244C3.53323 6.3705 3.28906 7.27772 3.29037 8.20119C3.29037 10.0137 4.21287 11.6149 5.61537 12.5524C4.78538 12.5263 3.97366 12.3022 3.24787 11.8987V11.9637C3.24812 13.1708 3.66583 14.3407 4.43018 15.275C5.19453 16.2093 6.25847 16.8505 7.44162 17.0899C6.67114 17.2987 5.86325 17.3295 5.07912 17.1799C5.41271 18.219 6.06288 19.1277 6.93861 19.7788C7.81434 20.43 8.87178 20.7909 9.96287 20.8112C8.87847 21.6628 7.63684 22.2924 6.30897 22.6639C4.9811 23.0354 3.59303 23.1415 2.22412 22.9762C4.61374 24.513 7.39549 25.3288 10.2366 25.3262C19.8529 25.3262 25.1116 17.3599 25.1116 10.4512C25.1116 10.2262 25.1054 9.99869 25.0954 9.77619C26.119 9.0364 27.0024 8.11996 27.7041 7.06994L27.7029 7.06869Z" fill="#979797"/>
</g>
<defs>
<clipPath id="clip0_2313_2619">
<rect width="30" height="30" fill="white"/>
</clipPath>
</defs>
</svg>
